<svg xmlns="http://www.w3.org/2000/svg" xmlns:xlink="http://www.w3.org/1999/xlink" preserveAspectRatio="xMidYMid" width="70" height="70" viewBox="0 0 70 70">
  <defs>
    <style>

      .cls-2 {
        fill: #000000;
        filter: url(#color-overlay-1);
      }
    </style>

    <filter id="color-overlay-1" filterUnits="userSpaceOnUse">
      <feFlood flood-color="#ffffff" flood-opacity="1"/>
      <feComposite operator="in" in2="SourceGraphic"/>
      <feBlend mode="normal" in2="SourceGraphic" result="colorOverlay"/>
    </filter>
  </defs>
  <path d="M31.221,18.621 C31.221,18.621 48.936,33.384 48.936,33.384 C49.406,33.775 49.677,34.355 49.677,34.966 C49.677,35.578 49.406,36.157 48.936,36.549 C48.936,36.549 31.221,51.311 31.221,51.311 C30.844,51.625 30.376,51.788 29.902,51.788 C29.606,51.788 29.308,51.724 29.029,51.594 C28.306,51.255 27.843,50.528 27.843,49.729 C27.843,49.729 27.843,20.204 27.843,20.204 C27.843,19.405 28.305,18.677 29.029,18.338 C29.752,17.999 30.608,18.110 31.221,18.621 ZM31.963,45.331 C31.963,45.331 44.400,34.966 44.400,34.966 C44.400,34.966 31.963,24.602 31.963,24.602 C31.963,24.602 31.963,45.331 31.963,45.331 ZM59.728,59.728 C53.002,66.453 43.994,69.967 34.906,69.967 C29.041,69.968 23.142,68.505 17.799,65.496 C16.808,64.939 16.457,63.682 17.015,62.691 C17.572,61.700 18.829,61.348 19.821,61.906 C31.839,68.672 47.051,66.580 56.814,56.814 C68.861,44.767 68.861,25.166 56.814,13.119 C44.767,1.070 25.165,1.070 13.119,13.119 C1.072,25.166 1.072,44.767 13.119,56.814 C13.923,57.618 13.923,58.923 13.119,59.728 C12.315,60.532 11.011,60.532 10.206,59.728 C-3.447,46.073 -3.447,23.859 10.206,10.205 C23.859,-3.447 46.073,-3.448 59.728,10.205 C73.381,23.859 73.381,46.073 59.728,59.728 Z" id="path-1" class="cls-2" fill-rule="evenodd"/>
</svg>
