<svg xmlns="http://www.w3.org/2000/svg" xmlns:xlink="http://www.w3.org/1999/xlink" preserveAspectRatio="xMidYMid" width="181" height="56" viewBox="0 0 181 56">
  <defs>
    <style>

      .cls-3 {
        fill: #000000;
        filter: url(#color-overlay-1);
      }

      .cls-4 {
        font-size: 34px;
      }

      .cls-5 {
        fill: #ffffff;
        text-anchor: end;
        font-size: 34px;
        font-family: "Raleway";
      }
    </style>

    <filter id="color-overlay-1" filterUnits="userSpaceOnUse">
      <feFlood flood-color="#ffffff" flood-opacity="1"/>
      <feComposite operator="in" in2="SourceGraphic"/>
      <feBlend mode="normal" in2="SourceGraphic" result="colorOverlay"/>
    </filter>
  </defs>
  <g id="logo">
    <path d="M52.529,55.128 C52.529,55.128 57.781,45.939 57.781,45.939 C57.781,45.939 63.033,55.128 63.033,55.128 C63.033,55.128 52.529,55.128 52.529,55.128 ZM45.960,45.172 C45.960,45.172 56.467,45.172 56.467,45.172 C56.467,45.172 51.214,54.359 51.214,54.359 C51.214,54.359 45.960,45.172 45.960,45.172 ZM51.214,34.451 C51.214,34.451 56.467,43.642 56.467,43.642 C56.467,43.642 45.960,43.642 45.960,43.642 C45.960,43.642 51.214,34.451 51.214,34.451 ZM39.394,33.686 C39.394,33.686 49.900,33.686 49.900,33.686 C49.900,33.686 44.646,42.874 44.646,42.874 C44.646,42.874 39.394,33.686 39.394,33.686 ZM44.646,22.967 C44.646,22.967 49.900,32.154 49.900,32.154 C49.900,32.154 39.394,32.154 39.394,32.154 C39.394,32.154 44.646,22.967 44.646,22.967 ZM32.824,22.201 C32.824,22.201 43.332,22.201 43.332,22.201 C43.332,22.201 38.078,31.389 38.078,31.389 C38.078,31.389 32.824,22.201 32.824,22.201 ZM38.078,11.480 C38.078,11.480 43.332,20.671 43.332,20.671 C43.332,20.671 32.824,20.671 32.824,20.671 C32.824,20.671 38.078,11.480 38.078,11.480 ZM26.257,10.713 C26.257,10.713 36.764,10.713 36.764,10.713 C36.764,10.713 31.510,19.905 31.510,19.905 C31.510,19.905 26.257,10.713 26.257,10.713 ZM31.510,-0.007 C31.510,-0.007 36.764,9.184 36.764,9.184 C36.764,9.184 26.257,9.184 26.257,9.184 C26.257,9.184 31.510,-0.007 31.510,-0.007 ZM19.689,20.671 C19.689,20.671 24.943,11.480 24.943,11.480 C24.943,11.480 30.196,20.671 30.196,20.671 C30.196,20.671 19.689,20.671 19.689,20.671 ZM13.121,32.154 C13.121,32.154 18.375,22.967 18.375,22.967 C18.375,22.967 23.628,32.154 23.628,32.154 C23.628,32.154 13.121,32.154 13.121,32.154 ZM6.553,43.642 C6.553,43.642 11.807,34.451 11.807,34.451 C11.807,34.451 17.060,43.642 17.060,43.642 C17.060,43.642 6.553,43.642 6.553,43.642 ZM-0.013,55.128 C-0.013,55.128 5.238,45.939 5.238,45.939 C5.238,45.939 10.492,55.128 10.492,55.128 C10.492,55.128 -0.013,55.128 -0.013,55.128 ZM17.060,45.172 C17.060,45.172 11.807,54.359 11.807,54.359 C11.807,54.359 6.553,45.172 6.553,45.172 C6.553,45.172 17.060,45.172 17.060,45.172 ZM23.628,33.686 C23.628,33.686 18.375,42.874 18.375,42.874 C18.375,42.874 13.121,33.686 13.121,33.686 C13.121,33.686 23.628,33.686 23.628,33.686 ZM30.196,22.201 C30.196,22.201 24.943,31.389 24.943,31.389 C24.943,31.389 19.689,22.201 19.689,22.201 C19.689,22.201 30.196,22.201 30.196,22.201 ZM36.764,55.128 C36.764,55.128 26.257,55.128 26.257,55.128 C26.257,55.128 31.510,45.939 31.510,45.939 C31.510,45.939 36.764,55.128 36.764,55.128 ZM43.332,45.172 C43.332,45.172 38.078,54.359 38.078,54.359 C38.078,54.359 32.824,45.172 32.824,45.172 C32.824,45.172 43.332,45.172 43.332,45.172 ZM49.900,55.128 C49.900,55.128 39.394,55.128 39.394,55.128 C39.394,55.128 44.646,45.939 44.646,45.939 C44.646,45.939 49.900,55.128 49.900,55.128 Z" id="path-1" class="cls-3" fill-rule="evenodd"/>
    <text class="cls-4" x="100%%" y="39px"><tspan x="100%" startOffset="100%" class="cls-5">Waxom</tspan></text>
  </g>
</svg>
